<svg height="488pt" viewBox="-66 0 488 488.37037" width="488pt" xmlns="http://www.w3.org/2000/svg" xmlns:xlink="http://www.w3.org/1999/xlink"><linearGradient id="a"><stop offset="0" stop-color="#00efd1"/><stop offset="1" stop-color="#00acea"/></linearGradient><linearGradient id="b" gradientUnits="userSpaceOnUse" x1="123.939056" x2="123.939056" xlink:href="#a" y1="-2.984628" y2="484.880372"/><linearGradient id="c" gradientUnits="userSpaceOnUse" x1="85.266056" x2="85.266056" xlink:href="#a" y1="-2.984628" y2="484.880372"/><linearGradient id="d" gradientUnits="userSpaceOnUse" x1="274.188056" x2="274.188056" xlink:href="#a" y1="-2.984628" y2="484.880372"/><linearGradient id="e" gradientUnits="userSpaceOnUse" x1="189.412056" x2="189.412056" xlink:href="#a" y1="-2.984628" y2="484.880372"/><linearGradient id="f" gradientUnits="userSpaceOnUse" x1="317.688056" x2="317.688056" xlink:href="#a" y1="-2.984628" y2="484.880372"/><linearGradient id="g" gradientUnits="userSpaceOnUse" x1="232.688056" x2="232.688056" xlink:href="#a" y1="-2.984628" y2="484.880372"/><path d="m181.59375 440.96875c1.5-1.933594 1.953125-4.484375 1.207031-6.816406-1-3.132813-3.742187-5.21875-8.871093-6.757813l-.144532-.039062c-17.5-4.839844-27.753906-12.292969-30.46875-22.144531-4.410156-15.988282 11.414063-37.050782 17.875-43.808594.300782-.316406.574219-.65625.8125-1.019532 10.589844-16.199218 21.027344-40.425781 10.589844-63.878906-1.632812-3.644531-3.710938-7.070312-6.1875-10.199218.46875.035156.941406.070312 1.414062.070312 8.839844-.003906 16.4375-6.261719 18.140626-14.933594 1.699218-8.671875-2.972657-17.335937-11.152344-20.679687l-18.328125-7.484375 90-220.363282c2.273437-5.488281 1.433593-11.773437-2.199219-16.472656-3.628906-4.703125-9.5-7.097656-15.382812-6.285156-5.886719.8125-10.882813 4.714844-13.101563 10.226562l-90 220.363282-18.332031-7.488282c-6.921875-2.828124-14.863282-1.207031-20.125 4.109376-5.261719 5.3125-6.800782 13.269531-3.90625 20.164062.246094.585938.523437 1.160156.828125 1.71875-34.230469-.191406-65.117188 20.5-77.964844 52.226562-12.847656 31.730469-5.058594 68.082032 19.660156 91.761719l.464844.515625c2.074219 6.589844 5.023437 12.871094 8.769531 18.675782 13.09375 20.300781 36.105469 35.511718 70.355469 46.515624.390625.121094.789063.210938 1.191406.261719 8.003907 3.222657 16.550781 4.875 25.175781 4.871094 4.347657 0 8.691407-.414063 12.960938-1.234375 14.992188-2.894531 28.035156-10.660156 36.71875-21.875zm47.164062-425.296875c.550782-1.292969 2.039063-1.902344 3.339844-1.371094 1.296875.53125 1.933594 2.007813 1.421875 3.316407l-90 220.359374-4.761719-1.941406zm-132.433593 223c.9375-2.292969 3.558593-3.394531 5.851562-2.457031l24.808594 10.132812 42.535156 17.371094c2.261719.957031 3.335938 3.554688 2.40625 5.828125-.929687 2.277344-3.515625 3.378906-5.800781 2.476563l-67.34375-27.5c-1.101562-.449219-1.980469-1.320313-2.441406-2.417969-.460938-1.097657-.464844-2.332031-.015625-3.433594zm11.929687 205.890625c-12.035156-6-21.167968-16.570312-25.363281-29.34375-1.257813-3.613281-5.179687-5.550781-8.8125-4.347656s-5.625 5.097656-4.476563 8.746094c1.179688 3.546874 2.660157 6.984374 4.429688 10.277343-32.636719-19.769531-43.363281-48.210937-34.5-88.867187.824219-3.777344-1.570312-7.507813-5.351562-8.328125-3.777344-.824219-7.503907 1.570312-8.328126 5.347656-2.066406 9.136719-3.1875 18.457031-3.34375 27.824219-13.480468-25.03125-10.382812-55.746094 7.824219-77.578125 18.210938-21.832031 47.867188-30.394531 74.910157-21.625 1.644531.542969 3.25 1.199219 4.800781 1.964843l32.5 15.980469c7.632812 3.667969 13.738281 9.886719 17.265625 17.582031 6.265625 14.078126 3.171875 30.90625-9.1875 50.019532-3.867188 4.183594-27.753906 31.351562-20.800782 56.675781 3.726563 13.585937 15.246094 23.699219 34.273438 30.128906-14.667969 12.09375-37.484375 14.761719-55.84375 5.542969zm0 0" fill="url(#b)"/><path d="m105.210938 275.34375c-8.058594.765625-15.867188 3.21875-22.910157 7.199219-10.683593 6.101562-23.585937 18.507812-24.382812 42.976562-.128907 3.863281 2.902343 7.101563 6.765625 7.226563h.234375c3.773437-.003906 6.867187-3 6.988281-6.773438.46875-14.269531 6.164062-24.714844 16.925781-31.039062 5.289063-3.046875 11.152344-4.960938 17.222657-5.621094 3.832031-.265625 6.738281-3.570312 6.507812-7.40625-.234375-3.835938-3.515625-6.769531-7.351562-6.566406zm0 0" fill="url(#c)"/><path d="m292.6875 469.371094h-37c-3.867188 0-7 3.132812-7 7 0 3.867187 3.132812 7 7 7h37c3.867188 0 7-3.132813 7-7 0-3.867188-3.132812-7-7-7zm0 0" fill="url(#d)"/><path d="m219.6875 474.371094h-60.550781c-3.867188 0-7 3.132812-7 7 0 3.867187 3.132812 7 7 7h60.550781c3.867188 0 7-3.132813 7-7 0-3.867188-3.132812-7-7-7zm0 0" fill="url(#e)"/><path d="m328.6875 393.371094h-13c-9.386719 0-17 7.609375-17 17 0 9.386718 7.613281 17 17 17h4c3.867188 0 7-3.132813 7-7 0-3.867188-3.132812-7-7-7h-4c-1.65625 0-3-1.34375-3-3s1.34375-3 3-3h13c7.179688 0 13 5.820312 13 13 0 7.179687-5.820312 13-13 13h-42c-3.867188 0-7 3.132812-7 7 0 3.867187 3.132812 7 7 7h42c14.914062 0 27-12.089844 27-27 0-14.914063-12.085938-27-27-27zm0 0" fill="url(#f)"/><path d="m201.6875 440.371094c0 3.867187 3.132812 7 7 7h48c3.867188 0 7-3.132813 7-7 0-3.867188-3.132812-7-7-7h-48c-3.867188 0-7 3.132812-7 7zm0 0" fill="url(#g)"/></svg>